<mxfile host="65bd71144e" pages="3">
    <diagram id="yn4MiXaf0uxrvuq78096" name="Index-View">
        <mxGraphModel dx="1382" dy="660" grid="1" gridSize="10" guides="1" tooltips="1" connect="1" arrows="1" fold="1" page="1" pageScale="1" pageWidth="827" pageHeight="1169" math="0" shadow="0">
            <root>
                <mxCell id="0"/>
                <mxCell id="1" parent="0"/>
                <mxCell id="hKovIjQ76Ydhvrz2VCnX-1" value="" style="rounded=0;whiteSpace=wrap;html=1;fillColor=none;" parent="1" vertex="1">
                    <mxGeometry x="90" y="290" width="550" height="360" as="geometry"/>
                </mxCell>
                <mxCell id="WXVgEN2d2EX2B0pGln6W-1" value="&quot;Project Name&quot; (From Config)" style="text;whiteSpace=wrap;html=1;" parent="1" vertex="1">
                    <mxGeometry x="270" y="260" width="190" height="40" as="geometry"/>
                </mxCell>
                <mxCell id="hKovIjQ76Ydhvrz2VCnX-2" value="Project" style="text;html=1;align=center;verticalAlign=middle;whiteSpace=wrap;rounded=0;fontStyle=1;fontSize=20;" parent="1" vertex="1">
                    <mxGeometry x="335" y="290" width="60" height="30" as="geometry"/>
                </mxCell>
                <mxCell id="hKovIjQ76Ydhvrz2VCnX-3" value="&lt;div align=&quot;left&quot;&gt;Basically list of &quot;BenchmarkSummary.&lt;b&gt;Name&lt;/b&gt;&quot;s. &lt;br&gt;&lt;/div&gt;&lt;div align=&quot;left&quot;&gt;&lt;br&gt;&lt;/div&gt;&lt;div align=&quot;left&quot;&gt;Two ordering options&lt;br&gt;&lt;/div&gt;&lt;div align=&quot;left&quot;&gt;&lt;br&gt;&lt;/div&gt;&lt;div align=&quot;left&quot;&gt;&lt;b&gt;a)&lt;/b&gt; Hierarchical View: First ordered by &quot;&lt;b&gt;Namespace&lt;/b&gt;&quot;&lt;br&gt;then by &quot;&lt;b&gt;Name&lt;/b&gt;&quot; (i.e. as they'd appear in an IDE)&lt;br&gt;&lt;/div&gt;&lt;b&gt;b)&lt;/b&gt; Most recently run case first (order by &quot;BenchmarkSummary.&lt;b&gt;Timestamp&lt;/b&gt;&quot;)&lt;br&gt;c) Perhaps also an ordering by &quot;BenchmarkSummary.&lt;b&gt;Duration&quot;&lt;/b&gt;&lt;br&gt;d) We could also provide a &quot;trend&quot; indicator (improving, stable, declining, jolty)" style="text;html=1;align=left;verticalAlign=middle;whiteSpace=wrap;rounded=0;rotation=0;" parent="1" vertex="1">
                    <mxGeometry x="90" y="40" width="300" height="140" as="geometry"/>
                </mxCell>
                <mxCell id="XzcD_7o0Bu71xLSJjPLl-1" value="NamespaceA" style="rounded=0;whiteSpace=wrap;html=1;align=left;" parent="1" vertex="1">
                    <mxGeometry x="120" y="340" width="290" height="30" as="geometry"/>
                </mxCell>
                <mxCell id="XzcD_7o0Bu71xLSJjPLl-2" value="NameA |&amp;nbsp;MostRecentRun  | #Runs | " style="rounded=0;whiteSpace=wrap;html=1;align=left;" parent="1" vertex="1">
                    <mxGeometry x="140" y="370" width="290" height="30" as="geometry"/>
                </mxCell>
                <mxCell id="XzcD_7o0Bu71xLSJjPLl-3" value="NameB |&amp;nbsp;MostRecentRun  | #Runs | " style="rounded=0;whiteSpace=wrap;html=1;align=left;" parent="1" vertex="1">
                    <mxGeometry x="140" y="400" width="290" height="30" as="geometry"/>
                </mxCell>
                <mxCell id="XzcD_7o0Bu71xLSJjPLl-4" value="NamespaceB&lt;span style=&quot;white-space: pre;&quot;&gt;&#9;&lt;/span&gt;" style="rounded=0;whiteSpace=wrap;html=1;align=left;" parent="1" vertex="1">
                    <mxGeometry x="120" y="430" width="290" height="30" as="geometry"/>
                </mxCell>
                <mxCell id="XzcD_7o0Bu71xLSJjPLl-5" value="NameC |&amp;nbsp;MostRecentRun  | #Runs | " style="rounded=0;whiteSpace=wrap;html=1;align=left;" parent="1" vertex="1">
                    <mxGeometry x="140" y="460" width="290" height="30" as="geometry"/>
                </mxCell>
                <mxCell id="XzcD_7o0Bu71xLSJjPLl-6" value="Example using the two pseudo benchmarks in GlassView:" style="text;html=1;align=left;verticalAlign=middle;whiteSpace=wrap;rounded=0;" parent="1" vertex="1">
                    <mxGeometry x="120" y="710" width="170" height="60" as="geometry"/>
                </mxCell>
                <mxCell id="XzcD_7o0Bu71xLSJjPLl-7" value="Atmoos.GlassView.Benchmark" style="rounded=0;whiteSpace=wrap;html=1;align=left;" parent="1" vertex="1">
                    <mxGeometry x="160" y="780" width="290" height="30" as="geometry"/>
                </mxCell>
                <mxCell id="XzcD_7o0Bu71xLSJjPLl-8" value="OtherTestBenchmark | 12.05.24 19:43  | 12 | " style="rounded=0;whiteSpace=wrap;html=1;align=left;" parent="1" vertex="1">
                    <mxGeometry x="180" y="810" width="290" height="30" as="geometry"/>
                </mxCell>
                <mxCell id="XzcD_7o0Bu71xLSJjPLl-9" value="TestBenchmark | 16.05.24 09:51  | 3 |" style="rounded=0;whiteSpace=wrap;html=1;align=left;" parent="1" vertex="1">
                    <mxGeometry x="180" y="840" width="290" height="30" as="geometry"/>
                </mxCell>
                <mxCell id="JEi8hOPXwnvhqfIgQbR5-2" value="" style="endArrow=classic;html=1;rounded=0;exitX=0;exitY=0;exitDx=0;exitDy=0;" parent="1" edge="1" source="JEi8hOPXwnvhqfIgQbR5-4">
                    <mxGeometry width="50" height="50" relative="1" as="geometry">
                        <mxPoint x="580" y="260" as="sourcePoint"/>
                        <mxPoint x="400" y="390" as="targetPoint"/>
                    </mxGeometry>
                </mxCell>
                <mxCell id="JEi8hOPXwnvhqfIgQbR5-4" value="&lt;i&gt;on click&lt;/i&gt;:&lt;br&gt;&lt;ul&gt;&lt;li&gt;Graph-View&lt;/li&gt;&lt;li&gt;Parameter-View of most recent run&lt;/li&gt;&lt;/ul&gt;" style="text;html=1;align=left;verticalAlign=middle;whiteSpace=wrap;rounded=0;" parent="1" vertex="1">
                    <mxGeometry x="570" y="210" width="170" height="60" as="geometry"/>
                </mxCell>
            </root>
        </mxGraphModel>
    </diagram>
    <diagram name="Graph-View" id="HXpsoRKgysbl0GP_rFdz">
        <mxGraphModel dx="1382" dy="660" grid="1" gridSize="10" guides="1" tooltips="1" connect="1" arrows="1" fold="1" page="1" pageScale="1" pageWidth="1169" pageHeight="827" math="0" shadow="0">
            <root>
                <mxCell id="0"/>
                <mxCell id="1" parent="0"/>
                <mxCell id="Yl6WcbkQ_v7bYP59QzWe-1" value="" style="rounded=0;whiteSpace=wrap;html=1;fillColor=none;" parent="1" vertex="1">
                    <mxGeometry x="120" y="159" width="550" height="360" as="geometry"/>
                </mxCell>
                <mxCell id="7xUdHaEU16PMrInk5YHl-3" value="" style="endArrow=classic;html=1;rounded=0;" parent="1" edge="1">
                    <mxGeometry width="50" height="50" relative="1" as="geometry">
                        <mxPoint x="200" y="489" as="sourcePoint"/>
                        <mxPoint x="200" y="199" as="targetPoint"/>
                    </mxGeometry>
                </mxCell>
                <mxCell id="7xUdHaEU16PMrInk5YHl-4" value="" style="endArrow=classic;html=1;rounded=0;" parent="1" edge="1">
                    <mxGeometry width="50" height="50" relative="1" as="geometry">
                        <mxPoint x="190" y="479" as="sourcePoint"/>
                        <mxPoint x="570" y="479" as="targetPoint"/>
                    </mxGeometry>
                </mxCell>
                <mxCell id="7xUdHaEU16PMrInk5YHl-5" value="duration/&lt;br&gt;ratio/&lt;br&gt;memory" style="text;html=1;align=center;verticalAlign=middle;whiteSpace=wrap;rounded=0;" parent="1" vertex="1">
                    <mxGeometry x="120" y="189" width="80" height="60" as="geometry"/>
                </mxCell>
                <mxCell id="7xUdHaEU16PMrInk5YHl-6" value="date-time" style="text;html=1;align=center;verticalAlign=middle;whiteSpace=wrap;rounded=0;" parent="1" vertex="1">
                    <mxGeometry x="490" y="479" width="80" height="40" as="geometry"/>
                </mxCell>
                <mxCell id="7xUdHaEU16PMrInk5YHl-7" value="Name" style="text;html=1;align=center;verticalAlign=middle;whiteSpace=wrap;rounded=0;fontStyle=1;fontSize=20;" parent="1" vertex="1">
                    <mxGeometry x="320" y="169" width="120" height="20" as="geometry"/>
                </mxCell>
                <mxCell id="7xUdHaEU16PMrInk5YHl-8" value="view" style="rounded=0;whiteSpace=wrap;html=1;" parent="1" vertex="1">
                    <mxGeometry x="570" y="199" width="60" height="20" as="geometry"/>
                </mxCell>
                <mxCell id="7xUdHaEU16PMrInk5YHl-10" value="parameter" style="rounded=0;whiteSpace=wrap;html=1;" parent="1" vertex="1">
                    <mxGeometry x="570" y="239" width="60" height="20" as="geometry"/>
                </mxCell>
                <mxCell id="7xUdHaEU16PMrInk5YHl-11" value="&lt;h1 style=&quot;font-size: 16px;&quot;&gt;DropDowns&lt;/h1&gt;&lt;p&gt;Both drop downs only appear when there is more than one option.&lt;/p&gt;&lt;p&gt;- views: select one of: [duration, ratio, memory]&lt;br&gt;&amp;nbsp; - default: duration&lt;br&gt;&lt;/p&gt;&lt;p&gt;- parameter: select any of the available parameter&lt;br&gt;&amp;nbsp; combinations&lt;br&gt;&amp;nbsp; - default: all or none&lt;br&gt;&lt;/p&gt;" style="text;html=1;spacing=5;spacingTop=-20;whiteSpace=wrap;overflow=hidden;rounded=0;" parent="1" vertex="1">
                    <mxGeometry x="680" y="129" width="280" height="230" as="geometry"/>
                </mxCell>
                <mxCell id="7xUdHaEU16PMrInk5YHl-12" value="" style="curved=1;endArrow=none;html=1;rounded=0;endFill=0;" parent="1" source="7xUdHaEU16PMrInk5YHl-32" edge="1">
                    <mxGeometry width="50" height="50" relative="1" as="geometry">
                        <mxPoint x="220" y="349" as="sourcePoint"/>
                        <mxPoint x="530" y="329" as="targetPoint"/>
                        <Array as="points">
                            <mxPoint x="440" y="289"/>
                        </Array>
                    </mxGeometry>
                </mxCell>
                <mxCell id="7xUdHaEU16PMrInk5YHl-14" value="" style="curved=1;endArrow=none;html=1;rounded=0;endFill=0;" parent="1" source="7xUdHaEU16PMrInk5YHl-47" edge="1">
                    <mxGeometry width="50" height="50" relative="1" as="geometry">
                        <mxPoint x="220" y="379" as="sourcePoint"/>
                        <mxPoint x="530" y="349" as="targetPoint"/>
                        <Array as="points"/>
                    </mxGeometry>
                </mxCell>
                <mxCell id="7xUdHaEU16PMrInk5YHl-15" value="" style="curved=1;endArrow=none;html=1;rounded=0;endFill=0;" parent="1" source="7xUdHaEU16PMrInk5YHl-45" edge="1">
                    <mxGeometry width="50" height="50" relative="1" as="geometry">
                        <mxPoint x="220" y="359" as="sourcePoint"/>
                        <mxPoint x="530" y="299" as="targetPoint"/>
                        <Array as="points"/>
                    </mxGeometry>
                </mxCell>
                <mxCell id="7xUdHaEU16PMrInk5YHl-17" value="&lt;h1 style=&quot;font-size: 16px;&quot;&gt;Graphs&lt;/h1&gt;- Each graph corresponds to exactly one&lt;br&gt;benchmark method: &quot;&lt;i&gt;BenchmarkCase&lt;/i&gt;.&lt;b&gt;Name&lt;/b&gt;&quot;&lt;br&gt;- The plotted values are one of&lt;br&gt;&amp;nbsp;&amp;nbsp; - duration: &quot;.Statistics.&lt;b&gt;Mean&lt;/b&gt;&quot;&lt;br&gt;&amp;nbsp;&amp;nbsp; - ratio: &lt;b&gt;Mean/(Mean of Baseline case)&lt;br&gt;&lt;/b&gt;&amp;nbsp;&amp;nbsp; - memory: &quot;.Allocation.&lt;b&gt;AllocatedBytes&lt;/b&gt;&quot;&lt;br&gt;- Hover over dot: Display excat value of dot with case Name&lt;br&gt;&lt;br&gt;&lt;b&gt;Error Bounds&lt;/b&gt;&lt;br&gt;A checkbox that displays the reported&lt;br&gt;error bounds. Active only when &lt;i&gt;duration&lt;/i&gt; or &lt;i&gt;ratio&lt;/i&gt; is selected.&lt;br&gt;&lt;b&gt;&lt;br&gt;Log View&lt;br&gt;&lt;/b&gt;View the results on a logarithmic y-axis. (log&lt;sub&gt;10&lt;/sub&gt;)" style="text;html=1;spacing=5;spacingTop=-20;whiteSpace=wrap;overflow=hidden;rounded=0;" parent="1" vertex="1">
                    <mxGeometry x="680" y="309" width="280" height="250" as="geometry"/>
                </mxCell>
                <mxCell id="7xUdHaEU16PMrInk5YHl-18" value="&quot;BenchmarkSummary.&lt;b&gt;Name&lt;/b&gt;&quot;" style="text;html=1;align=center;verticalAlign=middle;whiteSpace=wrap;rounded=0;" parent="1" vertex="1">
                    <mxGeometry x="295" y="119" width="170" height="30" as="geometry"/>
                </mxCell>
                <mxCell id="7xUdHaEU16PMrInk5YHl-33" value="" style="curved=1;endArrow=none;html=1;rounded=0;endFill=0;" parent="1" target="7xUdHaEU16PMrInk5YHl-25" edge="1">
                    <mxGeometry width="50" height="50" relative="1" as="geometry">
                        <mxPoint x="220" y="349" as="sourcePoint"/>
                        <mxPoint x="530" y="329" as="targetPoint"/>
                        <Array as="points"/>
                    </mxGeometry>
                </mxCell>
                <mxCell id="7xUdHaEU16PMrInk5YHl-25" value="" style="ellipse;whiteSpace=wrap;html=1;aspect=fixed;strokeColor=none;fillColor=#000099;" parent="1" vertex="1">
                    <mxGeometry x="238" y="348" width="3" height="3" as="geometry"/>
                </mxCell>
                <mxCell id="7xUdHaEU16PMrInk5YHl-36" value="" style="curved=1;endArrow=none;html=1;rounded=0;endFill=0;" parent="1" target="7xUdHaEU16PMrInk5YHl-26" edge="1">
                    <mxGeometry width="50" height="50" relative="1" as="geometry">
                        <mxPoint x="220" y="359" as="sourcePoint"/>
                        <mxPoint x="530" y="299" as="targetPoint"/>
                        <Array as="points"/>
                    </mxGeometry>
                </mxCell>
                <mxCell id="7xUdHaEU16PMrInk5YHl-26" value="" style="ellipse;whiteSpace=wrap;html=1;aspect=fixed;strokeColor=none;fillColor=#000099;" parent="1" vertex="1">
                    <mxGeometry x="238" y="359" width="3" height="3" as="geometry"/>
                </mxCell>
                <mxCell id="7xUdHaEU16PMrInk5YHl-37" value="" style="curved=1;endArrow=none;html=1;rounded=0;endFill=0;" parent="1" target="7xUdHaEU16PMrInk5YHl-27" edge="1">
                    <mxGeometry width="50" height="50" relative="1" as="geometry">
                        <mxPoint x="220" y="379" as="sourcePoint"/>
                        <mxPoint x="530" y="349" as="targetPoint"/>
                        <Array as="points"/>
                    </mxGeometry>
                </mxCell>
                <mxCell id="7xUdHaEU16PMrInk5YHl-27" value="" style="ellipse;whiteSpace=wrap;html=1;aspect=fixed;strokeColor=none;fillColor=#000099;" parent="1" vertex="1">
                    <mxGeometry x="238" y="373" width="3" height="3" as="geometry"/>
                </mxCell>
                <mxCell id="7xUdHaEU16PMrInk5YHl-38" value="" style="curved=1;endArrow=none;html=1;rounded=0;endFill=0;" parent="1" source="7xUdHaEU16PMrInk5YHl-25" target="7xUdHaEU16PMrInk5YHl-28" edge="1">
                    <mxGeometry width="50" height="50" relative="1" as="geometry">
                        <mxPoint x="241" y="349" as="sourcePoint"/>
                        <mxPoint x="530" y="329" as="targetPoint"/>
                        <Array as="points"/>
                    </mxGeometry>
                </mxCell>
                <mxCell id="7xUdHaEU16PMrInk5YHl-28" value="" style="ellipse;whiteSpace=wrap;html=1;aspect=fixed;strokeColor=none;fillColor=#000099;" parent="1" vertex="1">
                    <mxGeometry x="300" y="339" width="3" height="3" as="geometry"/>
                </mxCell>
                <mxCell id="7xUdHaEU16PMrInk5YHl-41" value="" style="curved=1;endArrow=none;html=1;rounded=0;endFill=0;" parent="1" source="7xUdHaEU16PMrInk5YHl-26" target="7xUdHaEU16PMrInk5YHl-29" edge="1">
                    <mxGeometry width="50" height="50" relative="1" as="geometry">
                        <mxPoint x="241" y="360" as="sourcePoint"/>
                        <mxPoint x="530" y="299" as="targetPoint"/>
                        <Array as="points"/>
                    </mxGeometry>
                </mxCell>
                <mxCell id="7xUdHaEU16PMrInk5YHl-29" value="" style="ellipse;whiteSpace=wrap;html=1;aspect=fixed;strokeColor=none;fillColor=#000099;" parent="1" vertex="1">
                    <mxGeometry x="300" y="351" width="3" height="3" as="geometry"/>
                </mxCell>
                <mxCell id="7xUdHaEU16PMrInk5YHl-42" value="" style="curved=1;endArrow=none;html=1;rounded=0;endFill=0;" parent="1" source="7xUdHaEU16PMrInk5YHl-27" target="7xUdHaEU16PMrInk5YHl-30" edge="1">
                    <mxGeometry width="50" height="50" relative="1" as="geometry">
                        <mxPoint x="241" y="374" as="sourcePoint"/>
                        <mxPoint x="530" y="349" as="targetPoint"/>
                        <Array as="points"/>
                    </mxGeometry>
                </mxCell>
                <mxCell id="7xUdHaEU16PMrInk5YHl-30" value="" style="ellipse;whiteSpace=wrap;html=1;aspect=fixed;strokeColor=none;fillColor=#000099;" parent="1" vertex="1">
                    <mxGeometry x="300" y="362" width="3" height="3" as="geometry"/>
                </mxCell>
                <mxCell id="7xUdHaEU16PMrInk5YHl-43" value="" style="curved=1;endArrow=none;html=1;rounded=0;endFill=0;" parent="1" source="7xUdHaEU16PMrInk5YHl-29" target="7xUdHaEU16PMrInk5YHl-31" edge="1">
                    <mxGeometry width="50" height="50" relative="1" as="geometry">
                        <mxPoint x="303" y="352" as="sourcePoint"/>
                        <mxPoint x="530" y="299" as="targetPoint"/>
                        <Array as="points"/>
                    </mxGeometry>
                </mxCell>
                <mxCell id="7xUdHaEU16PMrInk5YHl-31" value="" style="ellipse;whiteSpace=wrap;html=1;aspect=fixed;strokeColor=none;fillColor=#000099;" parent="1" vertex="1">
                    <mxGeometry x="390" y="319" width="3" height="3" as="geometry"/>
                </mxCell>
                <mxCell id="7xUdHaEU16PMrInk5YHl-46" value="" style="ellipse;whiteSpace=wrap;html=1;aspect=fixed;strokeColor=none;fillColor=#000099;" parent="1" vertex="1">
                    <mxGeometry x="490" y="312" width="3" height="3" as="geometry"/>
                </mxCell>
                <mxCell id="7xUdHaEU16PMrInk5YHl-52" value="" style="curved=1;endArrow=none;html=1;rounded=0;endFill=0;" parent="1" source="7xUdHaEU16PMrInk5YHl-28" target="7xUdHaEU16PMrInk5YHl-32" edge="1">
                    <mxGeometry width="50" height="50" relative="1" as="geometry">
                        <mxPoint x="303" y="340" as="sourcePoint"/>
                        <mxPoint x="530" y="329" as="targetPoint"/>
                        <Array as="points"/>
                    </mxGeometry>
                </mxCell>
                <mxCell id="7xUdHaEU16PMrInk5YHl-32" value="" style="ellipse;whiteSpace=wrap;html=1;aspect=fixed;strokeColor=none;fillColor=#000099;" parent="1" vertex="1">
                    <mxGeometry x="390" y="309" width="3" height="3" as="geometry"/>
                </mxCell>
                <mxCell id="7xUdHaEU16PMrInk5YHl-53" value="" style="curved=1;endArrow=none;html=1;rounded=0;endFill=0;" parent="1" source="7xUdHaEU16PMrInk5YHl-30" target="7xUdHaEU16PMrInk5YHl-44" edge="1">
                    <mxGeometry width="50" height="50" relative="1" as="geometry">
                        <mxPoint x="303" y="363" as="sourcePoint"/>
                        <mxPoint x="530" y="349" as="targetPoint"/>
                        <Array as="points"/>
                    </mxGeometry>
                </mxCell>
                <mxCell id="7xUdHaEU16PMrInk5YHl-44" value="" style="ellipse;whiteSpace=wrap;html=1;aspect=fixed;strokeColor=none;fillColor=#000099;" parent="1" vertex="1">
                    <mxGeometry x="390" y="365" width="3" height="3" as="geometry"/>
                </mxCell>
                <mxCell id="7xUdHaEU16PMrInk5YHl-56" value="" style="curved=1;endArrow=none;html=1;rounded=0;endFill=0;" parent="1" source="7xUdHaEU16PMrInk5YHl-31" target="7xUdHaEU16PMrInk5YHl-45" edge="1">
                    <mxGeometry width="50" height="50" relative="1" as="geometry">
                        <mxPoint x="393" y="320" as="sourcePoint"/>
                        <mxPoint x="530" y="299" as="targetPoint"/>
                        <Array as="points"/>
                    </mxGeometry>
                </mxCell>
                <mxCell id="7xUdHaEU16PMrInk5YHl-45" value="" style="ellipse;whiteSpace=wrap;html=1;aspect=fixed;strokeColor=none;fillColor=#000099;" parent="1" vertex="1">
                    <mxGeometry x="490" y="299" width="3" height="3" as="geometry"/>
                </mxCell>
                <mxCell id="7xUdHaEU16PMrInk5YHl-57" value="" style="curved=1;endArrow=none;html=1;rounded=0;endFill=0;" parent="1" source="7xUdHaEU16PMrInk5YHl-44" target="7xUdHaEU16PMrInk5YHl-47" edge="1">
                    <mxGeometry width="50" height="50" relative="1" as="geometry">
                        <mxPoint x="393" y="367" as="sourcePoint"/>
                        <mxPoint x="530" y="349" as="targetPoint"/>
                        <Array as="points"/>
                    </mxGeometry>
                </mxCell>
                <mxCell id="7xUdHaEU16PMrInk5YHl-47" value="" style="ellipse;whiteSpace=wrap;html=1;aspect=fixed;strokeColor=none;fillColor=#000099;" parent="1" vertex="1">
                    <mxGeometry x="490" y="354" width="3" height="3" as="geometry"/>
                </mxCell>
                <mxCell id="7xUdHaEU16PMrInk5YHl-59" value="" style="endArrow=none;html=1;rounded=0;exitX=0.5;exitY=0;exitDx=0;exitDy=0;" parent="1" edge="1">
                    <mxGeometry width="50" height="50" relative="1" as="geometry">
                        <mxPoint x="360" y="639" as="sourcePoint"/>
                        <mxPoint x="537" y="609" as="targetPoint"/>
                    </mxGeometry>
                </mxCell>
                <mxCell id="7xUdHaEU16PMrInk5YHl-60" value="" style="endArrow=none;html=1;rounded=0;" parent="1" edge="1">
                    <mxGeometry width="50" height="50" relative="1" as="geometry">
                        <mxPoint x="360" y="639" as="sourcePoint"/>
                        <mxPoint x="230" y="629" as="targetPoint"/>
                    </mxGeometry>
                </mxCell>
                <mxCell id="7xUdHaEU16PMrInk5YHl-61" value="" style="endArrow=none;html=1;rounded=0;" parent="1" edge="1">
                    <mxGeometry width="50" height="50" relative="1" as="geometry">
                        <mxPoint x="360" y="669" as="sourcePoint"/>
                        <mxPoint x="360" y="609" as="targetPoint"/>
                    </mxGeometry>
                </mxCell>
                <mxCell id="7xUdHaEU16PMrInk5YHl-62" value="" style="endArrow=none;html=1;rounded=0;" parent="1" edge="1">
                    <mxGeometry width="50" height="50" relative="1" as="geometry">
                        <mxPoint x="350" y="609" as="sourcePoint"/>
                        <mxPoint x="370" y="609" as="targetPoint"/>
                    </mxGeometry>
                </mxCell>
                <mxCell id="7xUdHaEU16PMrInk5YHl-63" value="" style="endArrow=none;html=1;rounded=0;" parent="1" edge="1">
                    <mxGeometry width="50" height="50" relative="1" as="geometry">
                        <mxPoint x="350" y="669" as="sourcePoint"/>
                        <mxPoint x="370" y="669" as="targetPoint"/>
                    </mxGeometry>
                </mxCell>
                <mxCell id="7xUdHaEU16PMrInk5YHl-58" value="" style="ellipse;whiteSpace=wrap;html=1;aspect=fixed;strokeColor=none;fillColor=#000099;" parent="1" vertex="1">
                    <mxGeometry x="357" y="636" width="6" height="6" as="geometry"/>
                </mxCell>
                <mxCell id="7xUdHaEU16PMrInk5YHl-64" value="" style="ellipse;whiteSpace=wrap;html=1;aspect=fixed;fillColor=none;dashed=1;" parent="1" vertex="1">
                    <mxGeometry x="310" y="589" width="100" height="100" as="geometry"/>
                </mxCell>
                <mxCell id="7xUdHaEU16PMrInk5YHl-65" value="&quot;Mean&quot;" style="text;html=1;align=left;verticalAlign=middle;whiteSpace=wrap;rounded=0;" parent="1" vertex="1">
                    <mxGeometry x="450" y="642" width="60" height="30" as="geometry"/>
                </mxCell>
                <mxCell id="7xUdHaEU16PMrInk5YHl-66" value="&quot;Mean + StandardError&quot;" style="text;html=1;align=left;verticalAlign=middle;whiteSpace=wrap;rounded=0;" parent="1" vertex="1">
                    <mxGeometry x="450" y="579" width="160" height="30" as="geometry"/>
                </mxCell>
                <mxCell id="7xUdHaEU16PMrInk5YHl-67" value="&quot;Mean + StandardError&quot;" style="text;html=1;align=left;verticalAlign=middle;whiteSpace=wrap;rounded=0;" parent="1" vertex="1">
                    <mxGeometry x="450" y="679" width="160" height="30" as="geometry"/>
                </mxCell>
                <mxCell id="7xUdHaEU16PMrInk5YHl-68" value="" style="curved=1;endArrow=classic;html=1;rounded=0;dashed=1;" parent="1" edge="1">
                    <mxGeometry width="50" height="50" relative="1" as="geometry">
                        <mxPoint x="440" y="579" as="sourcePoint"/>
                        <mxPoint x="370" y="599" as="targetPoint"/>
                        <Array as="points">
                            <mxPoint x="420" y="569"/>
                            <mxPoint x="370" y="549"/>
                        </Array>
                    </mxGeometry>
                </mxCell>
                <mxCell id="7xUdHaEU16PMrInk5YHl-69" value="" style="curved=1;endArrow=classic;html=1;rounded=0;dashed=1;" parent="1" edge="1">
                    <mxGeometry width="50" height="50" relative="1" as="geometry">
                        <mxPoint x="440" y="659" as="sourcePoint"/>
                        <mxPoint x="370" y="649" as="targetPoint"/>
                        <Array as="points">
                            <mxPoint x="420" y="659"/>
                            <mxPoint x="400" y="649"/>
                        </Array>
                    </mxGeometry>
                </mxCell>
                <mxCell id="7xUdHaEU16PMrInk5YHl-70" value="" style="curved=1;endArrow=classic;html=1;rounded=0;dashed=1;" parent="1" edge="1">
                    <mxGeometry width="50" height="50" relative="1" as="geometry">
                        <mxPoint x="445" y="689" as="sourcePoint"/>
                        <mxPoint x="375" y="675" as="targetPoint"/>
                        <Array as="points">
                            <mxPoint x="425" y="685"/>
                        </Array>
                    </mxGeometry>
                </mxCell>
                <mxCell id="7xUdHaEU16PMrInk5YHl-71" value="From: &quot;Statistics.&quot;" style="text;html=1;align=left;verticalAlign=middle;whiteSpace=wrap;rounded=0;" parent="1" vertex="1">
                    <mxGeometry x="450" y="549" width="160" height="30" as="geometry"/>
                </mxCell>
                <mxCell id="7xUdHaEU16PMrInk5YHl-72" value="" style="ellipse;whiteSpace=wrap;html=1;aspect=fixed;fillColor=none;dashed=1;" parent="1" vertex="1">
                    <mxGeometry x="386" y="361" width="11.5" height="11.5" as="geometry"/>
                </mxCell>
                <mxCell id="7xUdHaEU16PMrInk5YHl-73" value="" style="curved=1;endArrow=classic;html=1;rounded=0;dashed=1;" parent="1" edge="1">
                    <mxGeometry width="50" height="50" relative="1" as="geometry">
                        <mxPoint x="400" y="379" as="sourcePoint"/>
                        <mxPoint x="345" y="579" as="targetPoint"/>
                        <Array as="points">
                            <mxPoint x="410" y="449"/>
                            <mxPoint x="345" y="529"/>
                        </Array>
                    </mxGeometry>
                </mxCell>
                <mxCell id="7xUdHaEU16PMrInk5YHl-74" value="&lt;font style=&quot;font-size: 9px;&quot;&gt;zoomed in view of error bounds&lt;br&gt;&lt;/font&gt;" style="text;html=1;align=center;verticalAlign=middle;whiteSpace=wrap;rounded=0;" parent="1" vertex="1">
                    <mxGeometry x="270" y="510" width="80" height="60" as="geometry"/>
                </mxCell>
                <mxCell id="Yl6WcbkQ_v7bYP59QzWe-3" value="" style="group" parent="1" vertex="1" connectable="0">
                    <mxGeometry x="570" y="269" width="110" height="30" as="geometry"/>
                </mxCell>
                <mxCell id="7xUdHaEU16PMrInk5YHl-19" value="" style="rounded=0;whiteSpace=wrap;html=1;" parent="Yl6WcbkQ_v7bYP59QzWe-3" vertex="1">
                    <mxGeometry y="10" width="10" height="10" as="geometry"/>
                </mxCell>
                <mxCell id="7xUdHaEU16PMrInk5YHl-23" value="Error Bounds" style="text;html=1;align=left;verticalAlign=middle;whiteSpace=wrap;rounded=0;" parent="Yl6WcbkQ_v7bYP59QzWe-3" vertex="1">
                    <mxGeometry x="20" width="90" height="30" as="geometry"/>
                </mxCell>
                <mxCell id="Yl6WcbkQ_v7bYP59QzWe-4" value="" style="group" parent="1" vertex="1" connectable="0">
                    <mxGeometry x="570" y="299" width="110" height="30" as="geometry"/>
                </mxCell>
                <mxCell id="Yl6WcbkQ_v7bYP59QzWe-5" value="" style="rounded=0;whiteSpace=wrap;html=1;" parent="Yl6WcbkQ_v7bYP59QzWe-4" vertex="1">
                    <mxGeometry y="10" width="10" height="10" as="geometry"/>
                </mxCell>
                <mxCell id="Yl6WcbkQ_v7bYP59QzWe-6" value="Log-View" style="text;html=1;align=left;verticalAlign=middle;whiteSpace=wrap;rounded=0;" parent="Yl6WcbkQ_v7bYP59QzWe-4" vertex="1">
                    <mxGeometry x="20" width="90" height="30" as="geometry"/>
                </mxCell>
                <mxCell id="70W1fFVdTW-AkElGoJ3o-1" value="&lt;h1&gt;Ideas...&lt;/h1&gt;&lt;p&gt;a) Perhaps indicate a (relevant) change in the &quot;BenchmarkSummary.&lt;b&gt;Environment&lt;/b&gt;&quot; by changing the colour of the line segments...&lt;br&gt;&lt;/p&gt;b) Perhaps add a &quot;Statistics&quot; button that opens a pop-up with all sorts of statistical &amp;amp; historical data (fastest &amp;amp; slowest run, date of biggest change, &quot;health&quot;, etc....)." style="text;html=1;spacing=5;spacingTop=-20;whiteSpace=wrap;overflow=hidden;rounded=0;" parent="1" vertex="1">
                    <mxGeometry x="680" y="597" width="310" height="153" as="geometry"/>
                </mxCell>
                <mxCell id="zNjYdZyUnTC65Ly6XQp6-1" value="&lt;i&gt;on click&lt;/i&gt;: Run-View or Parameter-View" style="text;html=1;align=center;verticalAlign=middle;whiteSpace=wrap;rounded=0;" parent="1" vertex="1">
                    <mxGeometry x="510" y="89" width="260" height="30" as="geometry"/>
                </mxCell>
                <mxCell id="esOyQwsI3wIDk1c7eiQG-1" value="" style="endArrow=classic;html=1;rounded=0;exitX=0.11;exitY=0.985;exitDx=0;exitDy=0;exitPerimeter=0;" parent="1" source="zNjYdZyUnTC65Ly6XQp6-1" edge="1">
                    <mxGeometry width="50" height="50" relative="1" as="geometry">
                        <mxPoint x="954" y="-419.54545454545456" as="sourcePoint"/>
                        <mxPoint x="394" y="304" as="targetPoint"/>
                    </mxGeometry>
                </mxCell>
            </root>
        </mxGraphModel>
    </diagram>
    <diagram id="gVgmsMQiyrLfWfKZqhsB" name="Run-View">
        <mxGraphModel dx="1382" dy="660" grid="1" gridSize="10" guides="1" tooltips="1" connect="1" arrows="1" fold="1" page="1" pageScale="1" pageWidth="1169" pageHeight="827" math="0" shadow="0">
            <root>
                <mxCell id="0"/>
                <mxCell id="1" parent="0"/>
                <mxCell id="8rdzsmROCB8WJS4F5nVJ-1" value="" style="rounded=0;whiteSpace=wrap;html=1;fillColor=none;" parent="1" vertex="1">
                    <mxGeometry x="120" y="159" width="620" height="360" as="geometry"/>
                </mxCell>
                <mxCell id="8rdzsmROCB8WJS4F5nVJ-6" value="Name Timestamp" style="text;html=1;align=center;verticalAlign=middle;whiteSpace=wrap;rounded=0;fontStyle=1;fontSize=20;" parent="1" vertex="1">
                    <mxGeometry x="305" y="170" width="180" height="20" as="geometry"/>
                </mxCell>
                <mxCell id="8rdzsmROCB8WJS4F5nVJ-12" value="&quot;BenchmarkSummary.{&lt;b&gt;Name, Timestamp}&lt;/b&gt;&quot;" style="text;html=1;align=center;verticalAlign=middle;whiteSpace=wrap;rounded=0;" parent="1" vertex="1">
                    <mxGeometry x="295" y="119" width="275" height="30" as="geometry"/>
                </mxCell>
                <mxCell id="-qnYg9wHK3M1IKg5b_ol-2" value="&lt;h1 style=&quot;font-size: 16px;&quot;&gt;Environment Info&lt;/h1&gt;&lt;p&gt;&quot;Similar to what is displayed on the console...&quot;&lt;/p&gt;" style="text;html=1;spacing=5;spacingTop=-20;whiteSpace=wrap;overflow=hidden;rounded=0;" parent="1" vertex="1">
                    <mxGeometry x="160" y="220" width="250" height="120" as="geometry"/>
                </mxCell>
                <mxCell id="lNV90LzOlQt1Ul4PkIPF-3" value="" style="shape=table;startSize=0;container=1;collapsible=0;childLayout=tableLayout;fontSize=16;" parent="1" vertex="1">
                    <mxGeometry x="160" y="349" width="360" height="130" as="geometry"/>
                </mxCell>
                <mxCell id="lNV90LzOlQt1Ul4PkIPF-4" value="" style="shape=tableRow;horizontal=0;startSize=0;swimlaneHead=0;swimlaneBody=0;strokeColor=inherit;top=0;left=0;bottom=0;right=0;collapsible=0;dropTarget=0;fillColor=none;points=[[0,0.5],[1,0.5]];portConstraint=eastwest;fontSize=16;" parent="lNV90LzOlQt1Ul4PkIPF-3" vertex="1">
                    <mxGeometry width="360" height="43" as="geometry"/>
                </mxCell>
                <mxCell id="lNV90LzOlQt1Ul4PkIPF-5" value="Method" style="shape=partialRectangle;html=1;whiteSpace=wrap;connectable=0;strokeColor=inherit;overflow=hidden;fillColor=none;top=0;left=0;bottom=0;right=0;pointerEvents=1;fontSize=16;fontStyle=1" parent="lNV90LzOlQt1Ul4PkIPF-4" vertex="1">
                    <mxGeometry width="120" height="43" as="geometry">
                        <mxRectangle width="120" height="43" as="alternateBounds"/>
                    </mxGeometry>
                </mxCell>
                <mxCell id="lNV90LzOlQt1Ul4PkIPF-6" value="Mean/Median" style="shape=partialRectangle;html=1;whiteSpace=wrap;connectable=0;strokeColor=inherit;overflow=hidden;fillColor=none;top=0;left=0;bottom=0;right=0;pointerEvents=1;fontSize=16;fontStyle=1" parent="lNV90LzOlQt1Ul4PkIPF-4" vertex="1">
                    <mxGeometry x="120" width="120" height="43" as="geometry">
                        <mxRectangle width="120" height="43" as="alternateBounds"/>
                    </mxGeometry>
                </mxCell>
                <mxCell id="lNV90LzOlQt1Ul4PkIPF-7" value="Error" style="shape=partialRectangle;html=1;whiteSpace=wrap;connectable=0;strokeColor=inherit;overflow=hidden;fillColor=none;top=0;left=0;bottom=0;right=0;pointerEvents=1;fontSize=16;fontStyle=1" parent="lNV90LzOlQt1Ul4PkIPF-4" vertex="1">
                    <mxGeometry x="240" width="120" height="43" as="geometry">
                        <mxRectangle width="120" height="43" as="alternateBounds"/>
                    </mxGeometry>
                </mxCell>
                <mxCell id="lNV90LzOlQt1Ul4PkIPF-8" value="" style="shape=tableRow;horizontal=0;startSize=0;swimlaneHead=0;swimlaneBody=0;strokeColor=inherit;top=0;left=0;bottom=0;right=0;collapsible=0;dropTarget=0;fillColor=none;points=[[0,0.5],[1,0.5]];portConstraint=eastwest;fontSize=16;" parent="lNV90LzOlQt1Ul4PkIPF-3" vertex="1">
                    <mxGeometry y="43" width="360" height="44" as="geometry"/>
                </mxCell>
                <mxCell id="lNV90LzOlQt1Ul4PkIPF-9" value="NameA" style="shape=partialRectangle;html=1;whiteSpace=wrap;connectable=0;strokeColor=inherit;overflow=hidden;fillColor=none;top=0;left=0;bottom=0;right=0;pointerEvents=1;fontSize=16;fontStyle=1" parent="lNV90LzOlQt1Ul4PkIPF-8" vertex="1">
                    <mxGeometry width="120" height="44" as="geometry">
                        <mxRectangle width="120" height="44" as="alternateBounds"/>
                    </mxGeometry>
                </mxCell>
                <mxCell id="lNV90LzOlQt1Ul4PkIPF-10" value="x.yz ms" style="shape=partialRectangle;html=1;whiteSpace=wrap;connectable=0;strokeColor=inherit;overflow=hidden;fillColor=none;top=0;left=0;bottom=0;right=0;pointerEvents=1;fontSize=16;" parent="lNV90LzOlQt1Ul4PkIPF-8" vertex="1">
                    <mxGeometry x="120" width="120" height="44" as="geometry">
                        <mxRectangle width="120" height="44" as="alternateBounds"/>
                    </mxGeometry>
                </mxCell>
                <mxCell id="lNV90LzOlQt1Ul4PkIPF-11" value="x.yz ms" style="shape=partialRectangle;html=1;whiteSpace=wrap;connectable=0;strokeColor=inherit;overflow=hidden;fillColor=none;top=0;left=0;bottom=0;right=0;pointerEvents=1;fontSize=16;" parent="lNV90LzOlQt1Ul4PkIPF-8" vertex="1">
                    <mxGeometry x="240" width="120" height="44" as="geometry">
                        <mxRectangle width="120" height="44" as="alternateBounds"/>
                    </mxGeometry>
                </mxCell>
                <mxCell id="lNV90LzOlQt1Ul4PkIPF-12" value="" style="shape=tableRow;horizontal=0;startSize=0;swimlaneHead=0;swimlaneBody=0;strokeColor=inherit;top=0;left=0;bottom=0;right=0;collapsible=0;dropTarget=0;fillColor=none;points=[[0,0.5],[1,0.5]];portConstraint=eastwest;fontSize=16;" parent="lNV90LzOlQt1Ul4PkIPF-3" vertex="1">
                    <mxGeometry y="87" width="360" height="43" as="geometry"/>
                </mxCell>
                <mxCell id="lNV90LzOlQt1Ul4PkIPF-13" value="NameB" style="shape=partialRectangle;html=1;whiteSpace=wrap;connectable=0;strokeColor=inherit;overflow=hidden;fillColor=none;top=0;left=0;bottom=0;right=0;pointerEvents=1;fontSize=16;fontStyle=1" parent="lNV90LzOlQt1Ul4PkIPF-12" vertex="1">
                    <mxGeometry width="120" height="43" as="geometry">
                        <mxRectangle width="120" height="43" as="alternateBounds"/>
                    </mxGeometry>
                </mxCell>
                <mxCell id="lNV90LzOlQt1Ul4PkIPF-14" value="x.yz ms" style="shape=partialRectangle;html=1;whiteSpace=wrap;connectable=0;strokeColor=inherit;overflow=hidden;fillColor=none;top=0;left=0;bottom=0;right=0;pointerEvents=1;fontSize=16;" parent="lNV90LzOlQt1Ul4PkIPF-12" vertex="1">
                    <mxGeometry x="120" width="120" height="43" as="geometry">
                        <mxRectangle width="120" height="43" as="alternateBounds"/>
                    </mxGeometry>
                </mxCell>
                <mxCell id="lNV90LzOlQt1Ul4PkIPF-15" value="x.yz ms" style="shape=partialRectangle;html=1;whiteSpace=wrap;connectable=0;strokeColor=inherit;overflow=hidden;fillColor=none;top=0;left=0;bottom=0;right=0;pointerEvents=1;fontSize=16;" parent="lNV90LzOlQt1Ul4PkIPF-12" vertex="1">
                    <mxGeometry x="240" width="120" height="43" as="geometry">
                        <mxRectangle width="120" height="43" as="alternateBounds"/>
                    </mxGeometry>
                </mxCell>
                <mxCell id="8ta5MbsNJU4Y7uxAohbt-1" value="" style="group" parent="1" vertex="1" connectable="0">
                    <mxGeometry x="570" y="299" width="145" height="181" as="geometry"/>
                </mxCell>
                <mxCell id="8ta5MbsNJU4Y7uxAohbt-2" value="" style="rounded=0;whiteSpace=wrap;html=1;" parent="8ta5MbsNJU4Y7uxAohbt-1" vertex="1">
                    <mxGeometry y="10" width="10" height="10" as="geometry"/>
                </mxCell>
                <mxCell id="8ta5MbsNJU4Y7uxAohbt-3" value="Mean / Median" style="text;html=1;align=left;verticalAlign=middle;whiteSpace=wrap;rounded=0;" parent="8ta5MbsNJU4Y7uxAohbt-1" vertex="1">
                    <mxGeometry x="20" width="90" height="30" as="geometry"/>
                </mxCell>
                <mxCell id="lNV90LzOlQt1Ul4PkIPF-16" value="&quot;Depending on available data, offer differnt view options. Such as:&quot;" style="rounded=0;whiteSpace=wrap;html=1;align=left;verticalAlign=top;" parent="8ta5MbsNJU4Y7uxAohbt-1" vertex="1">
                    <mxGeometry x="-15" y="-9" width="160" height="190" as="geometry"/>
                </mxCell>
                <mxCell id="8ta5MbsNJU4Y7uxAohbt-4" value="" style="group" parent="1" vertex="1" connectable="0">
                    <mxGeometry x="570" y="359" width="110" height="30" as="geometry"/>
                </mxCell>
                <mxCell id="8ta5MbsNJU4Y7uxAohbt-5" value="" style="rounded=0;whiteSpace=wrap;html=1;" parent="8ta5MbsNJU4Y7uxAohbt-4" vertex="1">
                    <mxGeometry y="10" width="10" height="10" as="geometry"/>
                </mxCell>
                <mxCell id="8ta5MbsNJU4Y7uxAohbt-6" value="Show ratio" style="text;html=1;align=left;verticalAlign=middle;whiteSpace=wrap;rounded=0;" parent="8ta5MbsNJU4Y7uxAohbt-4" vertex="1">
                    <mxGeometry x="20" width="90" height="30" as="geometry"/>
                </mxCell>
                <mxCell id="8ta5MbsNJU4Y7uxAohbt-7" value="" style="group" parent="1" vertex="1" connectable="0">
                    <mxGeometry x="570" y="329" width="110" height="30" as="geometry"/>
                </mxCell>
                <mxCell id="8ta5MbsNJU4Y7uxAohbt-8" value="" style="rounded=0;whiteSpace=wrap;html=1;" parent="8ta5MbsNJU4Y7uxAohbt-7" vertex="1">
                    <mxGeometry y="10" width="10" height="10" as="geometry"/>
                </mxCell>
                <mxCell id="8ta5MbsNJU4Y7uxAohbt-9" value="Error: Yes/No" style="text;html=1;align=left;verticalAlign=middle;whiteSpace=wrap;rounded=0;" parent="8ta5MbsNJU4Y7uxAohbt-7" vertex="1">
                    <mxGeometry x="20" width="90" height="30" as="geometry"/>
                </mxCell>
                <mxCell id="8ta5MbsNJU4Y7uxAohbt-10" value="" style="group" parent="1" vertex="1" connectable="0">
                    <mxGeometry x="570" y="389" width="110" height="30" as="geometry"/>
                </mxCell>
                <mxCell id="8ta5MbsNJU4Y7uxAohbt-11" value="" style="rounded=0;whiteSpace=wrap;html=1;" parent="8ta5MbsNJU4Y7uxAohbt-10" vertex="1">
                    <mxGeometry y="10" width="10" height="10" as="geometry"/>
                </mxCell>
                <mxCell id="8ta5MbsNJU4Y7uxAohbt-12" value="GC-Collections" style="text;html=1;align=left;verticalAlign=middle;whiteSpace=wrap;rounded=0;" parent="8ta5MbsNJU4Y7uxAohbt-10" vertex="1">
                    <mxGeometry x="20" width="90" height="30" as="geometry"/>
                </mxCell>
                <mxCell id="8ta5MbsNJU4Y7uxAohbt-13" value="" style="endArrow=classic;html=1;rounded=0;entryX=1;entryY=0.75;entryDx=0;entryDy=0;" parent="1" target="8ta5MbsNJU4Y7uxAohbt-6" edge="1">
                    <mxGeometry width="50" height="50" relative="1" as="geometry">
                        <mxPoint x="780" y="410" as="sourcePoint"/>
                        <mxPoint x="520" y="370" as="targetPoint"/>
                    </mxGeometry>
                </mxCell>
                <mxCell id="8ta5MbsNJU4Y7uxAohbt-14" value="e.g: Show ratio should only be available when at least one case is marked as baseline. (&quot;BenchmarkCase.&lt;b&gt;IsBaseline&lt;/b&gt;&quot;)" style="text;html=1;align=center;verticalAlign=middle;whiteSpace=wrap;rounded=0;" parent="1" vertex="1">
                    <mxGeometry x="780" y="378" width="170" height="71" as="geometry"/>
                </mxCell>
                <mxCell id="8ta5MbsNJU4Y7uxAohbt-15" value="" style="endArrow=classic;html=1;rounded=0;" parent="1" target="lNV90LzOlQt1Ul4PkIPF-12" edge="1">
                    <mxGeometry width="50" height="50" relative="1" as="geometry">
                        <mxPoint x="310" y="580" as="sourcePoint"/>
                        <mxPoint x="690" y="392" as="targetPoint"/>
                    </mxGeometry>
                </mxCell>
                <mxCell id="8ta5MbsNJU4Y7uxAohbt-16" value="Not all cells need to display in the same unit. IMHO we should scale the prefix for best readability. (i.e. s, ms, μs, ns...)&lt;br&gt;&lt;br&gt;I suggest scaling the prefix such that the numeric value lies in the interval [1, 1000[" style="text;html=1;align=center;verticalAlign=middle;whiteSpace=wrap;rounded=0;" parent="1" vertex="1">
                    <mxGeometry x="135" y="570" width="170" height="71" as="geometry"/>
                </mxCell>
                <mxCell id="rMsDVlVEbIEIstC08sxP-1" value="" style="endArrow=classic;html=1;rounded=0;" edge="1" parent="1">
                    <mxGeometry width="50" height="50" relative="1" as="geometry">
                        <mxPoint x="563.76" y="630" as="sourcePoint"/>
                        <mxPoint x="529.9990670553937" y="480" as="targetPoint"/>
                    </mxGeometry>
                </mxCell>
                <mxCell id="rMsDVlVEbIEIstC08sxP-2" value="Add collumns &amp;amp; rows as needed" style="text;html=1;align=center;verticalAlign=middle;whiteSpace=wrap;rounded=0;" vertex="1" parent="1">
                    <mxGeometry x="570" y="610" width="170" height="71" as="geometry"/>
                </mxCell>
                <mxCell id="rMsDVlVEbIEIstC08sxP-3" value="Parameter Combination" style="rounded=0;whiteSpace=wrap;html=1;" vertex="1" parent="1">
                    <mxGeometry x="160" y="299" width="360" height="50" as="geometry"/>
                </mxCell>
                <mxCell id="rMsDVlVEbIEIstC08sxP-4" value="" style="endArrow=classic;html=1;rounded=0;" edge="1" parent="1">
                    <mxGeometry width="50" height="50" relative="1" as="geometry">
                        <mxPoint x="720" y="110" as="sourcePoint"/>
                        <mxPoint x="529.9990670553937" y="320" as="targetPoint"/>
                    </mxGeometry>
                </mxCell>
                <mxCell id="rMsDVlVEbIEIstC08sxP-5" value="If parameterisation is available, show a parameter combination selector.&lt;br&gt;(note, each case has a fixed set of parameters)" style="text;html=1;align=center;verticalAlign=middle;whiteSpace=wrap;rounded=0;" vertex="1" parent="1">
                    <mxGeometry x="730" y="70" width="170" height="71" as="geometry"/>
                </mxCell>
            </root>
        </mxGraphModel>
    </diagram>
    <diagram id="1YxuzbqYYattgelj5u6P" name="Parameter-View">
        <mxGraphModel dx="1382" dy="660" grid="1" gridSize="10" guides="1" tooltips="1" connect="1" arrows="1" fold="1" page="1" pageScale="1" pageWidth="827" pageHeight="1169" math="0" shadow="0">
            <root>
                <mxCell id="0"/>
                <mxCell id="1" parent="0"/>
                <mxCell id="dNQk3w4Ffo931cz4hP5p-1" value="" style="rounded=0;whiteSpace=wrap;html=1;fillColor=none;" vertex="1" parent="1">
                    <mxGeometry x="40" y="100" width="550" height="360" as="geometry"/>
                </mxCell>
                <mxCell id="dNQk3w4Ffo931cz4hP5p-2" value="" style="endArrow=classic;html=1;rounded=0;" edge="1" parent="1">
                    <mxGeometry width="50" height="50" relative="1" as="geometry">
                        <mxPoint x="120" y="430" as="sourcePoint"/>
                        <mxPoint x="120" y="140" as="targetPoint"/>
                    </mxGeometry>
                </mxCell>
                <mxCell id="dNQk3w4Ffo931cz4hP5p-3" value="" style="endArrow=classic;html=1;rounded=0;" edge="1" parent="1">
                    <mxGeometry width="50" height="50" relative="1" as="geometry">
                        <mxPoint x="110" y="420" as="sourcePoint"/>
                        <mxPoint x="490" y="420" as="targetPoint"/>
                    </mxGeometry>
                </mxCell>
                <mxCell id="dNQk3w4Ffo931cz4hP5p-4" value="duration/&lt;br&gt;ratio/&lt;br&gt;memory" style="text;html=1;align=center;verticalAlign=middle;whiteSpace=wrap;rounded=0;" vertex="1" parent="1">
                    <mxGeometry x="40" y="130" width="80" height="60" as="geometry"/>
                </mxCell>
                <mxCell id="dNQk3w4Ffo931cz4hP5p-5" value="parameter name" style="text;html=1;align=center;verticalAlign=middle;whiteSpace=wrap;rounded=0;" vertex="1" parent="1">
                    <mxGeometry x="410" y="420" width="110" height="40" as="geometry"/>
                </mxCell>
                <mxCell id="dNQk3w4Ffo931cz4hP5p-6" value="Name Timestamp" style="text;html=1;align=center;verticalAlign=middle;whiteSpace=wrap;rounded=0;fontStyle=1;fontSize=20;" vertex="1" parent="1">
                    <mxGeometry x="225" y="110" width="180" height="20" as="geometry"/>
                </mxCell>
                <mxCell id="dNQk3w4Ffo931cz4hP5p-7" value="parameter" style="rounded=0;whiteSpace=wrap;html=1;" vertex="1" parent="1">
                    <mxGeometry x="490" y="140" width="60" height="20" as="geometry"/>
                </mxCell>
                <mxCell id="dNQk3w4Ffo931cz4hP5p-9" value="&lt;h1 style=&quot;font-size: 16px;&quot;&gt;DropDowns&lt;/h1&gt;&lt;p&gt;Both drop downs only appear when there is more than one option.&lt;/p&gt;&lt;p&gt;- parameter: select which parameter (&lt;b&gt;Name&lt;/b&gt;) to use for the x-axis&lt;br&gt;&amp;nbsp; - default: &quot;Count | Length | Size&quot; (if it exists)&lt;br&gt;&lt;/p&gt;&lt;p&gt;- view: same as in Graph-View&lt;br&gt;&lt;/p&gt;" style="text;html=1;spacing=5;spacingTop=-20;whiteSpace=wrap;overflow=hidden;rounded=0;" vertex="1" parent="1">
                    <mxGeometry x="600" y="70" width="280" height="230" as="geometry"/>
                </mxCell>
                <mxCell id="dNQk3w4Ffo931cz4hP5p-10" value="" style="curved=1;endArrow=none;html=1;rounded=0;endFill=0;" edge="1" parent="1" source="dNQk3w4Ffo931cz4hP5p-31">
                    <mxGeometry width="50" height="50" relative="1" as="geometry">
                        <mxPoint x="140" y="290" as="sourcePoint"/>
                        <mxPoint x="450" y="270" as="targetPoint"/>
                        <Array as="points">
                            <mxPoint x="360" y="230"/>
                        </Array>
                    </mxGeometry>
                </mxCell>
                <mxCell id="dNQk3w4Ffo931cz4hP5p-11" value="" style="curved=1;endArrow=none;html=1;rounded=0;endFill=0;" edge="1" parent="1" source="dNQk3w4Ffo931cz4hP5p-37">
                    <mxGeometry width="50" height="50" relative="1" as="geometry">
                        <mxPoint x="140" y="320" as="sourcePoint"/>
                        <mxPoint x="450" y="290" as="targetPoint"/>
                        <Array as="points"/>
                    </mxGeometry>
                </mxCell>
                <mxCell id="dNQk3w4Ffo931cz4hP5p-12" value="" style="curved=1;endArrow=none;html=1;rounded=0;endFill=0;" edge="1" parent="1" source="dNQk3w4Ffo931cz4hP5p-35">
                    <mxGeometry width="50" height="50" relative="1" as="geometry">
                        <mxPoint x="140" y="300" as="sourcePoint"/>
                        <mxPoint x="450" y="240" as="targetPoint"/>
                        <Array as="points"/>
                    </mxGeometry>
                </mxCell>
                <mxCell id="dNQk3w4Ffo931cz4hP5p-14" value="&quot;BenchmarkSummary.{&lt;b&gt;Name,Timestamp}&lt;/b&gt;&quot;" style="text;html=1;align=center;verticalAlign=middle;whiteSpace=wrap;rounded=0;" vertex="1" parent="1">
                    <mxGeometry x="215" y="60" width="245" height="30" as="geometry"/>
                </mxCell>
                <mxCell id="dNQk3w4Ffo931cz4hP5p-15" value="" style="curved=1;endArrow=none;html=1;rounded=0;endFill=0;" edge="1" parent="1" target="dNQk3w4Ffo931cz4hP5p-16">
                    <mxGeometry width="50" height="50" relative="1" as="geometry">
                        <mxPoint x="140" y="290" as="sourcePoint"/>
                        <mxPoint x="450" y="270" as="targetPoint"/>
                        <Array as="points"/>
                    </mxGeometry>
                </mxCell>
                <mxCell id="dNQk3w4Ffo931cz4hP5p-16" value="" style="ellipse;whiteSpace=wrap;html=1;aspect=fixed;strokeColor=none;fillColor=#000099;" vertex="1" parent="1">
                    <mxGeometry x="158" y="289" width="3" height="3" as="geometry"/>
                </mxCell>
                <mxCell id="dNQk3w4Ffo931cz4hP5p-17" value="" style="curved=1;endArrow=none;html=1;rounded=0;endFill=0;" edge="1" parent="1" target="dNQk3w4Ffo931cz4hP5p-18">
                    <mxGeometry width="50" height="50" relative="1" as="geometry">
                        <mxPoint x="140" y="300" as="sourcePoint"/>
                        <mxPoint x="450" y="240" as="targetPoint"/>
                        <Array as="points"/>
                    </mxGeometry>
                </mxCell>
                <mxCell id="dNQk3w4Ffo931cz4hP5p-18" value="" style="ellipse;whiteSpace=wrap;html=1;aspect=fixed;strokeColor=none;fillColor=#000099;" vertex="1" parent="1">
                    <mxGeometry x="158" y="300" width="3" height="3" as="geometry"/>
                </mxCell>
                <mxCell id="dNQk3w4Ffo931cz4hP5p-19" value="" style="curved=1;endArrow=none;html=1;rounded=0;endFill=0;" edge="1" parent="1" target="dNQk3w4Ffo931cz4hP5p-20">
                    <mxGeometry width="50" height="50" relative="1" as="geometry">
                        <mxPoint x="140" y="320" as="sourcePoint"/>
                        <mxPoint x="450" y="290" as="targetPoint"/>
                        <Array as="points"/>
                    </mxGeometry>
                </mxCell>
                <mxCell id="dNQk3w4Ffo931cz4hP5p-20" value="" style="ellipse;whiteSpace=wrap;html=1;aspect=fixed;strokeColor=none;fillColor=#000099;" vertex="1" parent="1">
                    <mxGeometry x="158" y="314" width="3" height="3" as="geometry"/>
                </mxCell>
                <mxCell id="dNQk3w4Ffo931cz4hP5p-21" value="" style="curved=1;endArrow=none;html=1;rounded=0;endFill=0;" edge="1" parent="1" source="dNQk3w4Ffo931cz4hP5p-16" target="dNQk3w4Ffo931cz4hP5p-22">
                    <mxGeometry width="50" height="50" relative="1" as="geometry">
                        <mxPoint x="161" y="290" as="sourcePoint"/>
                        <mxPoint x="450" y="270" as="targetPoint"/>
                        <Array as="points"/>
                    </mxGeometry>
                </mxCell>
                <mxCell id="dNQk3w4Ffo931cz4hP5p-22" value="" style="ellipse;whiteSpace=wrap;html=1;aspect=fixed;strokeColor=none;fillColor=#000099;" vertex="1" parent="1">
                    <mxGeometry x="220" y="280" width="3" height="3" as="geometry"/>
                </mxCell>
                <mxCell id="dNQk3w4Ffo931cz4hP5p-23" value="" style="curved=1;endArrow=none;html=1;rounded=0;endFill=0;" edge="1" parent="1" source="dNQk3w4Ffo931cz4hP5p-18" target="dNQk3w4Ffo931cz4hP5p-24">
                    <mxGeometry width="50" height="50" relative="1" as="geometry">
                        <mxPoint x="161" y="301" as="sourcePoint"/>
                        <mxPoint x="450" y="240" as="targetPoint"/>
                        <Array as="points"/>
                    </mxGeometry>
                </mxCell>
                <mxCell id="dNQk3w4Ffo931cz4hP5p-24" value="" style="ellipse;whiteSpace=wrap;html=1;aspect=fixed;strokeColor=none;fillColor=#000099;" vertex="1" parent="1">
                    <mxGeometry x="220" y="292" width="3" height="3" as="geometry"/>
                </mxCell>
                <mxCell id="dNQk3w4Ffo931cz4hP5p-25" value="" style="curved=1;endArrow=none;html=1;rounded=0;endFill=0;" edge="1" parent="1" source="dNQk3w4Ffo931cz4hP5p-20" target="dNQk3w4Ffo931cz4hP5p-26">
                    <mxGeometry width="50" height="50" relative="1" as="geometry">
                        <mxPoint x="161" y="315" as="sourcePoint"/>
                        <mxPoint x="450" y="290" as="targetPoint"/>
                        <Array as="points"/>
                    </mxGeometry>
                </mxCell>
                <mxCell id="dNQk3w4Ffo931cz4hP5p-26" value="" style="ellipse;whiteSpace=wrap;html=1;aspect=fixed;strokeColor=none;fillColor=#000099;" vertex="1" parent="1">
                    <mxGeometry x="220" y="303" width="3" height="3" as="geometry"/>
                </mxCell>
                <mxCell id="dNQk3w4Ffo931cz4hP5p-27" value="" style="curved=1;endArrow=none;html=1;rounded=0;endFill=0;" edge="1" parent="1" source="dNQk3w4Ffo931cz4hP5p-24" target="dNQk3w4Ffo931cz4hP5p-28">
                    <mxGeometry width="50" height="50" relative="1" as="geometry">
                        <mxPoint x="223" y="293" as="sourcePoint"/>
                        <mxPoint x="450" y="240" as="targetPoint"/>
                        <Array as="points"/>
                    </mxGeometry>
                </mxCell>
                <mxCell id="dNQk3w4Ffo931cz4hP5p-28" value="" style="ellipse;whiteSpace=wrap;html=1;aspect=fixed;strokeColor=none;fillColor=#000099;" vertex="1" parent="1">
                    <mxGeometry x="310" y="260" width="3" height="3" as="geometry"/>
                </mxCell>
                <mxCell id="dNQk3w4Ffo931cz4hP5p-29" value="" style="ellipse;whiteSpace=wrap;html=1;aspect=fixed;strokeColor=none;fillColor=#000099;" vertex="1" parent="1">
                    <mxGeometry x="410" y="253" width="3" height="3" as="geometry"/>
                </mxCell>
                <mxCell id="dNQk3w4Ffo931cz4hP5p-30" value="" style="curved=1;endArrow=none;html=1;rounded=0;endFill=0;" edge="1" parent="1" source="dNQk3w4Ffo931cz4hP5p-22" target="dNQk3w4Ffo931cz4hP5p-31">
                    <mxGeometry width="50" height="50" relative="1" as="geometry">
                        <mxPoint x="223" y="281" as="sourcePoint"/>
                        <mxPoint x="450" y="270" as="targetPoint"/>
                        <Array as="points"/>
                    </mxGeometry>
                </mxCell>
                <mxCell id="dNQk3w4Ffo931cz4hP5p-31" value="" style="ellipse;whiteSpace=wrap;html=1;aspect=fixed;strokeColor=none;fillColor=#000099;" vertex="1" parent="1">
                    <mxGeometry x="310" y="250" width="3" height="3" as="geometry"/>
                </mxCell>
                <mxCell id="dNQk3w4Ffo931cz4hP5p-32" value="" style="curved=1;endArrow=none;html=1;rounded=0;endFill=0;" edge="1" parent="1" source="dNQk3w4Ffo931cz4hP5p-26" target="dNQk3w4Ffo931cz4hP5p-33">
                    <mxGeometry width="50" height="50" relative="1" as="geometry">
                        <mxPoint x="223" y="304" as="sourcePoint"/>
                        <mxPoint x="450" y="290" as="targetPoint"/>
                        <Array as="points"/>
                    </mxGeometry>
                </mxCell>
                <mxCell id="dNQk3w4Ffo931cz4hP5p-33" value="" style="ellipse;whiteSpace=wrap;html=1;aspect=fixed;strokeColor=none;fillColor=#000099;" vertex="1" parent="1">
                    <mxGeometry x="310" y="306" width="3" height="3" as="geometry"/>
                </mxCell>
                <mxCell id="dNQk3w4Ffo931cz4hP5p-34" value="" style="curved=1;endArrow=none;html=1;rounded=0;endFill=0;" edge="1" parent="1" source="dNQk3w4Ffo931cz4hP5p-28" target="dNQk3w4Ffo931cz4hP5p-35">
                    <mxGeometry width="50" height="50" relative="1" as="geometry">
                        <mxPoint x="313" y="261" as="sourcePoint"/>
                        <mxPoint x="450" y="240" as="targetPoint"/>
                        <Array as="points"/>
                    </mxGeometry>
                </mxCell>
                <mxCell id="dNQk3w4Ffo931cz4hP5p-35" value="" style="ellipse;whiteSpace=wrap;html=1;aspect=fixed;strokeColor=none;fillColor=#000099;" vertex="1" parent="1">
                    <mxGeometry x="410" y="240" width="3" height="3" as="geometry"/>
                </mxCell>
                <mxCell id="dNQk3w4Ffo931cz4hP5p-36" value="" style="curved=1;endArrow=none;html=1;rounded=0;endFill=0;" edge="1" parent="1" source="dNQk3w4Ffo931cz4hP5p-33" target="dNQk3w4Ffo931cz4hP5p-37">
                    <mxGeometry width="50" height="50" relative="1" as="geometry">
                        <mxPoint x="313" y="308" as="sourcePoint"/>
                        <mxPoint x="450" y="290" as="targetPoint"/>
                        <Array as="points"/>
                    </mxGeometry>
                </mxCell>
                <mxCell id="dNQk3w4Ffo931cz4hP5p-37" value="" style="ellipse;whiteSpace=wrap;html=1;aspect=fixed;strokeColor=none;fillColor=#000099;" vertex="1" parent="1">
                    <mxGeometry x="410" y="295" width="3" height="3" as="geometry"/>
                </mxCell>
                <mxCell id="dNQk3w4Ffo931cz4hP5p-52" value="" style="ellipse;whiteSpace=wrap;html=1;aspect=fixed;fillColor=none;dashed=1;" vertex="1" parent="1">
                    <mxGeometry x="306" y="302" width="11.5" height="11.5" as="geometry"/>
                </mxCell>
                <mxCell id="dNQk3w4Ffo931cz4hP5p-55" value="" style="group" vertex="1" connectable="0" parent="1">
                    <mxGeometry x="490" y="210" width="110" height="30" as="geometry"/>
                </mxCell>
                <mxCell id="dNQk3w4Ffo931cz4hP5p-56" value="" style="rounded=0;whiteSpace=wrap;html=1;" vertex="1" parent="dNQk3w4Ffo931cz4hP5p-55">
                    <mxGeometry y="10" width="10" height="10" as="geometry"/>
                </mxCell>
                <mxCell id="dNQk3w4Ffo931cz4hP5p-57" value="Error Bounds" style="text;html=1;align=left;verticalAlign=middle;whiteSpace=wrap;rounded=0;" vertex="1" parent="dNQk3w4Ffo931cz4hP5p-55">
                    <mxGeometry x="20" width="90" height="30" as="geometry"/>
                </mxCell>
                <mxCell id="dNQk3w4Ffo931cz4hP5p-58" value="" style="group" vertex="1" connectable="0" parent="1">
                    <mxGeometry x="490" y="240" width="110" height="30" as="geometry"/>
                </mxCell>
                <mxCell id="dNQk3w4Ffo931cz4hP5p-59" value="" style="rounded=0;whiteSpace=wrap;html=1;" vertex="1" parent="dNQk3w4Ffo931cz4hP5p-58">
                    <mxGeometry y="10" width="10" height="10" as="geometry"/>
                </mxCell>
                <mxCell id="dNQk3w4Ffo931cz4hP5p-60" value="Log-View" style="text;html=1;align=left;verticalAlign=middle;whiteSpace=wrap;rounded=0;" vertex="1" parent="dNQk3w4Ffo931cz4hP5p-58">
                    <mxGeometry x="20" width="90" height="30" as="geometry"/>
                </mxCell>
                <mxCell id="dNQk3w4Ffo931cz4hP5p-61" value="&lt;h1&gt;Ideas...&lt;/h1&gt;&lt;p&gt;This is a view that offers heaps of opportunities. First, lets just keep it simple, but eventually:&lt;/p&gt;&lt;p&gt;a) Show how each parameterisation changes over time&lt;br&gt;&lt;/p&gt;b) Find parameter combo that provides some sweet spot (duration vs. memory, etc...)&lt;br&gt;c) Perhaps at some point parameterisation vs. environment" style="text;html=1;spacing=5;spacingTop=-20;whiteSpace=wrap;overflow=hidden;rounded=0;" vertex="1" parent="1">
                    <mxGeometry x="200" y="490" width="350" height="170" as="geometry"/>
                </mxCell>
                <mxCell id="dNQk3w4Ffo931cz4hP5p-62" value="&lt;i&gt;on click&lt;/i&gt;: Run-View" style="text;html=1;align=center;verticalAlign=middle;whiteSpace=wrap;rounded=0;" vertex="1" parent="1">
                    <mxGeometry x="430" y="30" width="140" height="30" as="geometry"/>
                </mxCell>
                <mxCell id="dNQk3w4Ffo931cz4hP5p-63" value="" style="endArrow=classic;html=1;rounded=0;exitX=0.11;exitY=0.985;exitDx=0;exitDy=0;exitPerimeter=0;" edge="1" parent="1" source="dNQk3w4Ffo931cz4hP5p-62">
                    <mxGeometry width="50" height="50" relative="1" as="geometry">
                        <mxPoint x="874" y="-478.54545454545456" as="sourcePoint"/>
                        <mxPoint x="314" y="245" as="targetPoint"/>
                    </mxGeometry>
                </mxCell>
                <mxCell id="biDtD8aob32Mwsh0HPiE-1" value="view" style="rounded=0;whiteSpace=wrap;html=1;" vertex="1" parent="1">
                    <mxGeometry x="490" y="170" width="60" height="20" as="geometry"/>
                </mxCell>
            </root>
        </mxGraphModel>
    </diagram>
</mxfile>